<svg xmlns="http://www.w3.org/2000/svg" viewBox="0 0 900 520"><rect width="900" height="520" fill="white"/><rect x="18" y="18" width="864" height="484" fill="white" stroke="#ddd"/><g font-family="Georgia,serif" fill="#171717"><text x="48" y="60" font-family="Arial" font-size="16" font-weight="bold" fill="#c41e3a" letter-spacing="2">HOUSEHOLD FINANCE - EUROPE, 2000-2019</text><text x="48" y="88" font-family="Arial" font-size="13" fill="#555" letter-spacing="1">INSTITUTIONAL CONFIGURATIONS AND BALANCE-SHEET RESPONSE</text><rect x="48" y="125" width="350" height="82" fill="#fbf8f3" stroke="#d9d2c7"/><rect x="502" y="125" width="350" height="82" fill="#f3f7f6" stroke="#cbd8d5"/><text x="70" y="158" font-family="Arial" font-size="16" font-weight="bold">PUBLIC INSURANCE</text><text x="70" y="186" font-size="19" fill="#444">Capacity to absorb income risk</text><text x="524" y="158" font-family="Arial" font-size="16" font-weight="bold">BORROWER REGULATION</text><text x="524" y="186" font-size="19" fill="#444">Recorded mortgage-rule architecture</text><path d="M222 208v32h228M678 208v32H450" fill="none" stroke="#999"/><rect x="278" y="239" width="344" height="72" fill="white" stroke="#222"/><text x="450" y="270" text-anchor="middle" font-family="Arial" font-size="16" font-weight="bold">CREDIT EXPANSION</text><text x="450" y="294" text-anchor="middle" font-size="19" fill="#444">Household credit / GDP</text><path d="M450 312v44" stroke="#c41e3a" stroke-width="3"/><path d="M442 349l8 10 8-10" fill="none" stroke="#c41e3a" stroke-width="3"/><rect x="173" y="368" width="554" height="70" fill="white" stroke="#c41e3a" stroke-width="2"/><text x="450" y="398" text-anchor="middle" font-family="Arial" font-size="16" font-weight="bold">HOUSEHOLD SAVING RESPONSE</text><text x="450" y="423" text-anchor="middle" font-size="19" fill="#444">Credit-saving slope varies across configurations</text><text x="450" y="470" text-anchor="middle" font-family="Arial" font-size="13" fill="#555" letter-spacing="1">ASSOCIATIONAL EVIDENCE - NOT A CAUSAL CLAIM</text></g></svg>
